<svg id="Layer_1" data-name="Layer 1" xmlns="http://www.w3.org/2000/svg" xmlns:xlink="http://www.w3.org/1999/xlink" viewBox="0 0 350 64.78"><defs><style>.cls-1{fill:url(#linear-gradient);}.cls-2{fill:url(#linear-gradient-2);}.cls-3{fill:url(#linear-gradient-3);}.cls-4{fill:url(#linear-gradient-4);}.cls-5{fill:url(#linear-gradient-5);}.cls-6{fill:url(#linear-gradient-6);}.cls-7{fill:url(#linear-gradient-7);}.cls-8{fill:#f5f5f5;}</style><linearGradient id="linear-gradient" y1="164.24" x2="1" y2="164.24" gradientTransform="matrix(12.27, 0, 0, -6.41, 11.95, 1113.96)" gradientUnits="userSpaceOnUse"><stop offset="0" stop-color="#2d388a"/><stop offset="1" stop-color="#00aeef"/></linearGradient><linearGradient id="linear-gradient-2" x1="0" y1="164.24" x2="1" y2="164.24" gradientTransform="matrix(12.27, 0, 0, -6.41, 37.26, 1113.95)" xlink:href="#linear-gradient"/><linearGradient id="linear-gradient-3" x1="0" y1="151.99" x2="1" y2="151.99" gradientTransform="matrix(10.28, 0, 0, -3.84, 25.54, 643.23)" xlink:href="#linear-gradient"/><linearGradient id="linear-gradient-4" x1="0" y1="164.24" x2="1" y2="164.24" gradientTransform="matrix(12.27, 0, 0, -6.41, 105.98, 1113.78)" xlink:href="#linear-gradient"/><linearGradient id="linear-gradient-5" x1="0" y1="164.24" x2="1" y2="164.24" gradientTransform="matrix(12.27, 0, 0, -6.41, 80.67, 1113.78)" xlink:href="#linear-gradient"/><linearGradient id="linear-gradient-6" x1="0" y1="151.99" x2="1" y2="151.99" gradientTransform="matrix(10.28, 0, 0, -3.84, 94.38, 643.23)" xlink:href="#linear-gradient"/><linearGradient id="linear-gradient-7" x1="0" y1="180.42" x2="1" y2="180.42" gradientTransform="matrix(130, 0, 0, -56.18, 0, 10163.61)" xlink:href="#linear-gradient"/></defs><g id="SvgjsG3132"><path class="cls-1" d="M12,58.37c.05,8.53,12.27,8.53,12.27.08"/><path class="cls-2" d="M37.26,58.37c.06,8.53,12.27,8.53,12.27.08"/><path class="cls-3" d="M25.54,62.26H35.82a6.76,6.76,0,0,1-.73-3.83H26.44A7.2,7.2,0,0,1,25.54,62.26Z"/><path class="cls-4" d="M106,58.45c0,8.45,12.21,8.45,12.27-.08"/><path class="cls-5" d="M80.67,58.45c0,8.45,12.21,8.45,12.27-.08"/><path class="cls-6" d="M103.75,58.43H95.11a6.76,6.76,0,0,1-.73,3.83h10.27A7.29,7.29,0,0,1,103.75,58.43Z"/><path class="cls-7" d="M121.78,26.06h2.38V22.18H102.34l-1.08-1.3H91.13l14.74-9.69L88.89,0,72.28,11.18l14.41,9.7H76.93l-1.24,1.3H54.31l-1.24-1.3H43.31l14.41-9.7L41.11,0l-17,11.19,14.74,9.69H28.74l-1.08,1.3H5.84v3.88H8.22L0,42.43v10a4.28,4.28,0,0,0,3.78,3.7H126.22a4.28,4.28,0,0,0,3.78-3.7v-10ZM15.68,42.77H8.59c-1.64,0-4.4-2-3.41-5.66l5.44-11H15.7Zm12,8.74c-.22,1.24-1.09,1.47-1.79,2.14H20c-.7-.69-1.59-.91-1.81-2.16V27.73c0-.53.75-1.06,1.61-1.67h6.26c.88.62,1.65,1.15,1.65,1.69Zm-1-40.32L41.1,1.69l14.1,9.49L41.11,20.67Zm25,29.45c-.22,1.23-1.06,1.47-1.76,2.11H32.21c-.7-.67-1.6-.85-1.82-2.1h-.12l0-12.94c0-.48.79-1,1.65-1.65H50.07c.86.6,1.59,1.13,1.59,1.65Zm24.1,0c-.2,1.24-1.07,1.44-1.76,2.08H56c-.69-.64-1.56-.84-1.76-2.08v-13c0-.47.76-1,1.6-1.6H74.16c.84.59,1.6,1.13,1.6,1.6Zm-1-29.49L88.9,1.69l14.42,9.5L88.89,20.67ZM99.61,40.65c-.22,1.25-1.12,1.42-1.82,2.1H80.1c-.69-.65-1.53-.88-1.75-2.11V27.71c0-.53.73-1.05,1.59-1.65H98.05c.86.61,1.65,1.17,1.65,1.65l0,12.94Zm12.18,10.84c-.22,1.25-1.11,1.47-1.81,2.16h-5.9c-.7-.67-1.57-.9-1.78-2.14l0-23.75c0-.55.77-1.08,1.65-1.7h6.26c.86.61,1.61,1.14,1.61,1.67Zm9.62-8.72h-7.09l0-16.71h5.08l5.44,11.05C125.81,40.81,123.05,42.77,121.41,42.77Z"/></g><g id="SvgjsG3133"><path class="cls-8" d="M165.61,23.76l0,3.48V49.66a22.15,22.15,0,0,1-3.81.28,20.51,20.51,0,0,1-3.72-.28V23.76l-3,0h-4.84a15.31,15.31,0,0,1-.28-3.12,15.42,15.42,0,0,1,.28-3.13h23.27a9.86,9.86,0,0,1,.38,3A3.09,3.09,0,0,1,173,23a4.7,4.7,0,0,1-3,.77h-1.36l-3,0Zm23.13,19.6,6.16-25.81a12.22,12.22,0,0,1,2.91-.28,11.43,11.43,0,0,1,3.86.52l.28.37-8.79,31.5a50.88,50.88,0,0,1-5.38.28,8.26,8.26,0,0,1-3.91-.68,4.36,4.36,0,0,1-1.81-2.7l-7.8-28.35a11.27,11.27,0,0,1,4.18-1.08,4.15,4.15,0,0,1,2.92.89,6,6,0,0,1,1.46,2.82l3.62,13.4c.56,2.1,1.16,4.95,1.78,8.56C188.29,43.17,188.46,43.36,188.74,43.36Zm16.27-1L215.44,28a41.55,41.55,0,0,1,3.81-4.66l-.14-.14a58.48,58.48,0,0,1-7.29.42H205.1a10.37,10.37,0,0,1-.28-2.61,13.86,13.86,0,0,1,.52-3.5h20.82a27.43,27.43,0,0,1,1,5,4,4,0,0,1-.85,2.28L215.87,39.18a39.78,39.78,0,0,1-3.67,4.42l.14.14q4.71-.33,7-.33H222a12.86,12.86,0,0,0,5.26-1.08,11.36,11.36,0,0,1,.52,3.48,3.35,3.35,0,0,1-1.34,2.84,5.79,5.79,0,0,1-3.6,1h-18a30.08,30.08,0,0,1-.84-4.86A4.22,4.22,0,0,1,205,42.38Zm45.13-2.07H237.87A5.34,5.34,0,0,0,239,43.6a4,4,0,0,0,3.25,1.17,12.07,12.07,0,0,0,2.6-.33,23.67,23.67,0,0,0,3.41-1.08,7.46,7.46,0,0,1,1.93,4.33,15.52,15.52,0,0,1-9.21,2.68,11.7,11.7,0,0,1-5-.94,8.37,8.37,0,0,1-3.25-2.64,10.43,10.43,0,0,1-1.76-4,22.65,22.65,0,0,1-.52-5,17.49,17.49,0,0,1,.64-4.87A11.11,11.11,0,0,1,233,29a9,9,0,0,1,3.3-2.58A10.81,10.81,0,0,1,241,25.5a10.54,10.54,0,0,1,4.07.75,8.8,8.8,0,0,1,5,5.22,11.22,11.22,0,0,1,.68,4A16.51,16.51,0,0,1,250.14,40.31Zm-12.32-5.08H244v-.52a5,5,0,0,0-.78-2.87,2.62,2.62,0,0,0-2.32-1.12,2.54,2.54,0,0,0-2.24,1.05A7.17,7.17,0,0,0,237.82,35.23ZM269,26.16a13,13,0,0,1,.28,2.63,12.28,12.28,0,0,1-.28,2.58l-5.6-.09V42.09c0,1.48.69,2.21,2.07,2.21h2.63a9.19,9.19,0,0,1,.61,3.11,8,8,0,0,1-.18,2,48.62,48.62,0,0,1-6.4.47q-5.93,0-5.92-6.54v-12l-3.67,0a9.39,9.39,0,0,1-.33-2.56,10.46,10.46,0,0,1,.33-2.65l3.67.09V23.52a5,5,0,0,1,.92-3.41,4,4,0,0,1,3.08-1H263l.33.33v6.82Zm20.5,2.11q3.38,3.39,3.38,9.69a16.8,16.8,0,0,1-.73,5.12A11.15,11.15,0,0,1,290,47a9.24,9.24,0,0,1-3.41,2.49,11.7,11.7,0,0,1-4.66.87,11.18,11.18,0,0,1-4.63-.9A9.38,9.38,0,0,1,273.91,47a10.74,10.74,0,0,1-2.1-3.93,17.21,17.21,0,0,1-.7-5.07,17.3,17.3,0,0,1,.7-5.11,11.29,11.29,0,0,1,2.07-3.92,9.13,9.13,0,0,1,3.39-2.54,11.35,11.35,0,0,1,4.65-.89A10.38,10.38,0,0,1,289.45,28.27ZM282,31a2.63,2.63,0,0,0-1.67.49,3.47,3.47,0,0,0-1,1.34,7.31,7.31,0,0,0-.52,2,19.67,19.67,0,0,0-.14,2.38c0,1.31,0,2.45.12,3.41a9.1,9.1,0,0,0,.47,2.39,3,3,0,0,0,1,1.44,2.76,2.76,0,0,0,1.67.47,2.63,2.63,0,0,0,2.72-1.81,15.72,15.72,0,0,0,.66-5.15,15.44,15.44,0,0,0-.66-5.15A2.56,2.56,0,0,0,282,31Zm23.7,13.07,4.09-17.82a14,14,0,0,1,3-.28,10.12,10.12,0,0,1,3.52.56l.24.33q-4.8,17.49-6.54,22.8a42.72,42.72,0,0,1-5.05.28,7.42,7.42,0,0,1-3.79-.72,4.78,4.78,0,0,1-1.73-2.8l-5.65-19.65a10.58,10.58,0,0,1,4.09-1,4.46,4.46,0,0,1,2.78.77,4.79,4.79,0,0,1,1.46,2.66L304.16,38c.16.6.5,2.49,1,5.69C305.23,43.94,305.38,44.07,305.67,44.07Zm24.77-7.48V36a9.73,9.73,0,0,0-.56-3.83,2.12,2.12,0,0,0-2.12-1.2,2.33,2.33,0,0,0-2.3,1.62A15.65,15.65,0,0,0,324.8,38a16.36,16.36,0,0,0,.26,3.15,6,6,0,0,0,.75,2,3,3,0,0,0,1.25,1.13,4.22,4.22,0,0,0,1.78.35,7.06,7.06,0,0,0,2.4-.47,12.18,12.18,0,0,0,2.82-1.5,3.84,3.84,0,0,1,.87.68,6.34,6.34,0,0,1,.82,1,7.77,7.77,0,0,1,.66,1.2,7.61,7.61,0,0,1,.43,1.2,11.24,11.24,0,0,1-4,2.63,13.61,13.61,0,0,1-5.07,1A9.4,9.4,0,0,1,320,47.08q-2.67-3.3-2.68-9.36a15.31,15.31,0,0,1,.87-5.41,11.08,11.08,0,0,1,2.31-3.8,9.19,9.19,0,0,1,3.29-2.26,10.27,10.27,0,0,1,3.88-.75,12.19,12.19,0,0,1,3.78.56,9,9,0,0,1,3,1.6,7,7,0,0,1,1.93,2.47A7.18,7.18,0,0,1,337,33.3a3.15,3.15,0,0,1-1.15,2.78,4.87,4.87,0,0,1-2.84.79,11.06,11.06,0,0,1-2.59-.28Zm19.56-5v18a14.3,14.3,0,0,1-1.74.21c-.63.05-1.27.07-1.93.07s-1.31,0-1.95-.07a14.41,14.41,0,0,1-1.76-.21V34.1c0-1.82-.74-2.73-2.21-2.73h-.71a8.88,8.88,0,0,1-.28-2.49,11,11,0,0,1,.28-2.63l2.26-.17c.69,0,1.32-.07,1.88-.07h1a4.84,4.84,0,0,1,3.76,1.51A5.84,5.84,0,0,1,350,31.61Zm-8.23-14.86A7.3,7.3,0,0,1,345.3,16a6.56,6.56,0,0,1,3.43.75,6.93,6.93,0,0,1,0,5.46,7.79,7.79,0,0,1-3.57.7,6.67,6.67,0,0,1-3.39-.7,6.93,6.93,0,0,1,0-5.46Z"/></g></svg>